<svg xmlns="http://www.w3.org/2000/svg" width="700" height="200" viewBox="0 0 700 200">
  <defs>
    <style>
      .cls-1 {
        fill: #fff;
        fill-rule: evenodd;
      }
    </style>
  </defs>
  <path id="GENERATE_FROM_IMAGE" data-name="GENERATE FROM IMAGE" class="cls-1" d="M102.743,103.96h6.363v2.566q0,7.313-1.441,10.617a4.958,4.958,0,0,1-4.887,3.094q-3.8,0-5.168-4.359t-1.371-16.7q0-12.2,1.336-16.91,1.336-4.5,4.992-4.5a4.849,4.849,0,0,1,4.008,1.652,8.246,8.246,0,0,1,1.23,2.268,24.25,24.25,0,0,1,1.02,3.6l6.82-2.848q-1.687-5.941-4.711-8.543-2.988-2.566-8.332-2.566-7,0-10.371,5.309Q88.645,82.3,88.645,99.389q0,14.943,3.269,21.27,3.3,6.328,11.074,6.328,7.523,0,10.266-5.695,2.776-5.555,2.777-21.41V97.772H102.743v6.188Zm20.566,22.359h19.442v-6.187H130.622V101.6H141.38V95.417H130.622V78.225h12.129V72.038H123.309v54.281Zm26.156,0h7.208l-0.387-23.66q0-1.02-.018-1.828t-0.053-1.371l-0.386-6.715-0.387-5.519q-0.036-.457-0.105-1.108t-0.176-1.564q0.21,0.915.369,1.617t0.228,1.2Q156.6,91.3,157.6,94.889t2.127,7l8.192,24.434h6.855V72.038H167.43v20.25q0,4.5.422,9.6t1.3,11.391a197.749,197.749,0,0,0-5.59-19.582l-7.277-21.656h-6.821v54.281Zm33.68,0h19.442v-6.187H190.458V101.6h10.757V95.417H190.458V78.225h12.129V72.038H183.145v54.281Zm26.156,0h7.313V99.741l9.949,26.578h7.418L224,99.917a8.37,8.37,0,0,0,5.572-4.377,19.363,19.363,0,0,0,1.951-9.369q0-7.594-3.691-11.285-2.919-2.848-8.9-2.848H209.3v54.281Zm7.313-48.27h1.23a7.609,7.609,0,0,1,2.971.527,4.672,4.672,0,0,1,2.039,1.652,7.746,7.746,0,0,1,1.16,2.918,21.79,21.79,0,0,1,.369,4.324q0,4.676-1.757,6.644t-6.012,1.969V78.05Zm18.949,48.27h7.031l2.075-10.582h10.757l2.039,10.582h7.243L253.071,72.038h-5.695Zm10.125-16.242,1.336-6.961q1.055-5.625,1.828-10.635t1.266-9.9q1.019,10.02,2.637,18.843l1.617,8.649h-8.684Zm17.824-31.641h8.438v47.883h7.172V78.436h8.191v-6.4h-23.8v6.4Zm27.844,47.883H310.8v-6.187H298.669V101.6h10.757V95.417H298.669V78.225H310.8V72.038H291.356v54.281Zm41.063,0h7.312v-24.75H350.77V95.382H339.731V78.225h12.234V72.038H332.419v54.281Zm25.171,0H364.9V99.741l9.949,26.578h7.418l-9.984-26.4a8.367,8.367,0,0,0,5.572-4.377,19.363,19.363,0,0,0,1.951-9.369q0-7.594-3.691-11.285-2.919-2.848-8.895-2.848H357.59v54.281ZM364.9,78.05h1.23a7.606,7.606,0,0,1,2.971.527,4.672,4.672,0,0,1,2.039,1.652,7.746,7.746,0,0,1,1.16,2.918,21.783,21.783,0,0,1,.37,4.324q0,4.676-1.758,6.644T364.9,96.085V78.05ZM413.489,84.9a22.175,22.175,0,0,0-3.164-8.894q-3.3-4.675-10.125-4.676-7.629,0-10.828,6.047-3.165,6.012-3.164,20.5,0,16.243,3.2,22.605,3.234,6.5,11.144,6.5,7.524,0,10.723-6.047t3.2-20.426a92.587,92.587,0,0,0-.984-15.609h0Zm-8.051,31.324q-1.371,4.078-5.062,4.078-3.763,0-5.133-4.359-1.337-4.6-1.336-16.523,0-12.937,1.266-17.227,1.3-4.253,5.2-4.254t5.168,4.641q1.264,4.606,1.265,18.7,0,10.9-1.371,14.941h0Zm14.379,10.09h6.891l2.109-37.406q0.563,4.57,1.248,8.736t1.565,8.209l4.289,20.461h4.921l4.571-23.7,0.351-1.864,0.914-4.957q0.175-.984.405-2.426T447.59,90l0.176-1.09q0.034,0.387.053,0.615c0.012,0.153.018,0.252,0.018,0.3l0.175,6.68,0.317,7.278q0,0.667.053,1.687t0.123,2.426l1.23,18.422h7l-4.992-54.281h-6.328L441.157,93.8l-0.809,3.9-0.914,5.906-1.019,6.223a3.692,3.692,0,0,0-.071.474q-0.034.334-.105,0.932-0.6-4.57-1.318-8.736t-1.6-8.315L430.54,72.038h-6.258Zm57.867,0H485V72.038h-7.313v54.281Zm13.781,0h6.891l2.109-37.406q0.563,4.57,1.249,8.736t1.564,8.209l4.289,20.461h4.922l4.57-23.7,0.352-1.864,0.914-4.957q0.175-.984.4-2.426T519.239,90l0.176-1.09q0.034,0.387.052,0.615c0.012,0.153.018,0.252,0.018,0.3l0.176,6.68,0.316,7.278q0,0.667.053,1.687t0.123,2.426l1.23,18.422h7l-4.993-54.281h-6.328L512.8,93.8,512,97.7l-0.914,5.906-1.02,6.223a3.935,3.935,0,0,0-.07.474q-0.036.334-.106,0.932-0.6-4.57-1.318-8.736t-1.6-8.315l-4.781-22.148H495.93Zm38.883,0h7.032l2.074-10.582h10.758l2.039,10.582h7.242L547.856,72.038h-5.7Zm10.125-16.242,1.336-6.961q1.054-5.625,1.828-10.635t1.266-9.9q1.018,10.02,2.637,18.843l1.617,8.649h-8.684Zm36.106-6.117h6.363v2.566q0,7.313-1.441,10.617a4.958,4.958,0,0,1-4.887,3.094q-3.8,0-5.168-4.359t-1.371-16.7q0-12.2,1.336-16.91,1.335-4.5,4.992-4.5a4.849,4.849,0,0,1,4.008,1.652,8.246,8.246,0,0,1,1.23,2.268,24.25,24.25,0,0,1,1.02,3.6l6.82-2.848Q587.794,76.5,584.77,73.9q-2.988-2.566-8.332-2.566-7,0-10.371,5.309-3.586,5.661-3.586,22.746,0,14.943,3.27,21.27,3.3,6.328,11.074,6.328,7.523,0,10.265-5.695,2.778-5.555,2.778-21.41V97.772H576.579v6.188Zm20.566,22.359h19.442v-6.187H604.458V101.6h10.757V95.417H604.458V78.225h12.129V72.038H597.145v54.281Z"/>
</svg>
