<svg xmlns="http://www.w3.org/2000/svg" width="700" height="200" viewBox="0 0 700 200">
  <defs>
    <style>
      .cls-1 {
        fill: #fff;
        fill-rule: evenodd;
      }
    </style>
  </defs>
  <path id="DOWNLOAD_AS_IMAGE" data-name="DOWNLOAD AS IMAGE" class="cls-1" d="M108.069,126.319h5.906q10.266,0,14.239-3.551a16.032,16.032,0,0,0,4.64-8.261A60.926,60.926,0,0,0,134.3,99.882q0-9.773-1.3-15.012a19.668,19.668,0,0,0-4.36-8.789A10.969,10.969,0,0,0,124,72.952a22.659,22.659,0,0,0-6.926-.914h-9v54.281Zm7.313-48.129H116.3q5.906,0,8.121,4.711t2.215,17.262q0,11.672-2.321,15.715-2.25,4.042-8.929,4.043V78.19ZM167.764,84.9A22.16,22.16,0,0,0,164.6,76.01q-3.3-4.675-10.125-4.676-7.629,0-10.828,6.047-3.163,6.012-3.164,20.5,0,16.243,3.2,22.605,3.234,6.5,11.145,6.5,7.523,0,10.722-6.047t3.2-20.426a92.566,92.566,0,0,0-.985-15.609h0Zm-8.05,31.324q-1.373,4.078-5.063,4.078-3.762,0-5.133-4.359-1.336-4.6-1.336-16.523,0-12.937,1.266-17.227,1.3-4.253,5.2-4.254t5.168,4.641q1.266,4.606,1.266,18.7,0,10.9-1.371,14.941h0Zm21.585,10.09h5.872l3.972-23.449q0.071-.246.211-1.266t0.387-2.812l0.738-5.2q0.035-.281.158-1.564t0.3-3.6q0.035-.387.106-0.984t0.14-1.406l0.176,2.25q0.175,1.934.334,3.2c0.106,0.844.181,1.476,0.229,1.9l0.738,5.414q0.281,1.9.422,2.918t0.176,1.16l3.832,23.449h5.695l9.6-54.281h-7l-3.128,21.234-0.528,3.621q-0.492,3.727-.931,7.594t-0.791,8.016q-0.353-3.937-.9-8.262t-1.353-9.387L196.1,72.038h-5.625l-3.9,23.484q-0.562,3.27-1.037,7.137t-0.9,8.473l-0.175,1.757q-0.072-.7-0.106-1.16t-0.07-.633l-0.387-4.605q-0.212-2.5-.633-5.52l-0.6-3.726-3.692-25.207h-7.066Zm37.372,0h7.207l-0.387-23.66q0-1.02-.018-1.828t-0.052-1.371l-0.387-6.715-0.387-5.519c-0.023-.3-0.059-0.674-0.1-1.108s-0.106-.955-0.176-1.564q0.211,0.915.369,1.617t0.229,1.2q0.843,3.938,1.845,7.523t2.127,7l8.192,24.434h6.855V72.038h-7.348v20.25q0,4.5.422,9.6t1.3,11.391a197.749,197.749,0,0,0-5.59-19.582l-7.277-21.656h-6.82v54.281Zm33.679,0h19.266v-6.187H259.663V72.038H252.35v54.281ZM302.378,84.9a22.19,22.19,0,0,0-3.164-8.894q-3.306-4.675-10.125-4.676-7.63,0-10.829,6.047-3.163,6.012-3.164,20.5,0,16.243,3.2,22.605,3.234,6.5,11.144,6.5,7.522,0,10.723-6.047t3.2-20.426a92.694,92.694,0,0,0-.984-15.609h0Zm-8.051,31.324q-1.371,4.078-5.063,4.078-3.762,0-5.132-4.359-1.337-4.6-1.336-16.523,0-12.937,1.265-17.227,1.3-4.253,5.2-4.254t5.168,4.641q1.266,4.606,1.266,18.7,0,10.9-1.371,14.941h0Zm12.058,10.09h7.032l2.074-10.582h10.758l2.039,10.582h7.242L323.893,72.038H318.2Zm10.125-16.242,1.336-6.961q1.054-5.625,1.828-10.635t1.266-9.9q1.02,10.02,2.637,18.843l1.617,8.649H316.51Zm23.309,16.242h5.906q10.266,0,14.239-3.551a16.032,16.032,0,0,0,4.64-8.261,60.926,60.926,0,0,0,1.442-14.626q0-9.773-1.3-15.012a19.668,19.668,0,0,0-4.36-8.789,10.969,10.969,0,0,0-4.64-3.129,22.659,22.659,0,0,0-6.926-.914h-9v54.281Zm7.313-48.129h0.914q5.906,0,8.121,4.711t2.215,17.262q0,11.672-2.321,15.715-2.25,4.042-8.929,4.043V78.19Zm37.019,48.129h7.031l2.075-10.582h10.757l2.039,10.582H413.3L401.659,72.038h-5.695Zm10.125-16.242,1.336-6.961q1.054-5.625,1.828-10.635t1.266-9.9q1.018,10.02,2.636,18.843l1.618,8.649h-8.684ZM428.237,71.3a11.392,11.392,0,0,0-8.965,3.762q-3.3,3.727-3.305,10.09a16.167,16.167,0,0,0,1.688,7.8,22.873,22.873,0,0,0,2.707,3.691q1.827,2.109,4.6,4.852,1.794,1.793,2.989,3.252a21.689,21.689,0,0,1,1.863,2.584,10.794,10.794,0,0,1,1.3,5.308,8.065,8.065,0,0,1-1.688,5.4,5.806,5.806,0,0,1-4.675,1.986q-3.2,0-7.1-2.848v7.243a12.618,12.618,0,0,0,7.98,2.566,11.662,11.662,0,0,0,9.106-3.973,15.22,15.22,0,0,0,3.551-10.371,17.247,17.247,0,0,0-1.618-7.84,32.5,32.5,0,0,0-6.082-7.84q-2.425-2.426-3.955-4.148A21.587,21.587,0,0,1,424.44,90a8.9,8.9,0,0,1-1.3-4.887,7.218,7.218,0,0,1,1.828-5.168,6.039,6.039,0,0,1,4.711-2.039A10.712,10.712,0,0,1,435.69,80.3V73.163a15.826,15.826,0,0,0-7.453-1.863h0Zm31.113,55.02h7.313V72.038H459.35v54.281Zm13.782,0h6.89l2.11-37.406q0.561,4.57,1.248,8.736t1.564,8.209l4.289,20.461h4.922l4.57-23.7,0.352-1.864,0.914-4.957q0.176-.984.4-2.426T500.905,90l0.176-1.09q0.034,0.387.052,0.615c0.012,0.153.018,0.252,0.018,0.3l0.176,6.68,0.316,7.278q0,0.667.053,1.687t0.123,2.426l1.23,18.422h7l-4.993-54.281h-6.328L494.471,93.8l-0.808,3.9-0.914,5.906-1.02,6.223a3.935,3.935,0,0,0-.07.474q-0.036.334-.106,0.932-0.6-4.57-1.318-8.736t-1.6-8.315l-4.781-22.148H477.6Zm38.882,0h7.032l2.074-10.582h10.758l2.039,10.582h7.242L529.522,72.038h-5.7Zm10.125-16.242,1.336-6.961q1.054-5.625,1.828-10.635t1.266-9.9q1.02,10.02,2.637,18.843l1.617,8.649h-8.684Zm36.106-6.117h6.363v2.566q0,7.313-1.441,10.617a4.958,4.958,0,0,1-4.887,3.094q-3.8,0-5.168-4.359t-1.371-16.7q0-12.2,1.336-16.91,1.335-4.5,4.992-4.5a4.849,4.849,0,0,1,4.008,1.652,8.246,8.246,0,0,1,1.23,2.268,24.25,24.25,0,0,1,1.02,3.6l6.82-2.848Q569.46,76.5,566.436,73.9q-2.988-2.566-8.332-2.566-7,0-10.371,5.309-3.586,5.661-3.586,22.746,0,14.943,3.27,21.27,3.3,6.328,11.074,6.328,7.523,0,10.266-5.695,2.777-5.555,2.777-21.41V97.772H558.245v6.188Zm20.566,22.359h19.442v-6.187H586.124V101.6h10.758V95.417H586.124V78.225h12.129V72.038H578.811v54.281Z"/>
</svg>
