<svg xmlns="http://www.w3.org/2000/svg" width="700" height="200" viewBox="0 0 700 200">
  <defs>
    <style>
      .cls-1 {
        fill: #fff;
        fill-rule: evenodd;
      }
    </style>
  </defs>
  <path id="GENERATE_RANDOM" data-name="GENERATE RANDOM" class="cls-1" d="M147.005,103.96h6.363v2.566q0,7.313-1.442,10.617a4.956,4.956,0,0,1-4.886,3.094q-3.8,0-5.168-4.359t-1.371-16.7q0-12.2,1.336-16.91,1.335-4.5,4.992-4.5a4.849,4.849,0,0,1,4.008,1.652,8.246,8.246,0,0,1,1.23,2.268,24.25,24.25,0,0,1,1.02,3.6l6.82-2.848Q158.22,76.5,155.2,73.9q-2.988-2.566-8.332-2.566-7,0-10.371,5.309-3.587,5.661-3.586,22.746,0,14.943,3.269,21.27,3.3,6.328,11.075,6.328,7.522,0,10.265-5.695,2.776-5.555,2.778-21.41V97.772H147.005v6.188Zm20.566,22.359h19.441v-6.187H174.883V101.6h10.758V95.417H174.883V78.225h12.129V72.038H167.571v54.281Zm26.156,0h7.207l-0.386-23.66q0-1.02-.018-1.828t-0.053-1.371l-0.387-6.715L199.7,87.225q-0.036-.457-0.106-1.108t-0.175-1.564q0.21,0.915.369,1.617t0.228,1.2q0.844,3.938,1.846,7.523t2.127,7l8.191,24.434h6.856V72.038h-7.348v20.25q0,4.5.422,9.6t1.3,11.391a198.021,198.021,0,0,0-5.59-19.582l-7.277-21.656h-6.821v54.281Zm33.68,0h19.441v-6.187H234.719V101.6h10.758V95.417H234.719V78.225h12.129V72.038H227.407v54.281Zm26.156,0h7.313V99.741l9.949,26.578h7.418l-9.985-26.4a8.369,8.369,0,0,0,5.573-4.377,19.363,19.363,0,0,0,1.951-9.369q0-7.594-3.692-11.285-2.917-2.848-8.894-2.848h-9.633v54.281Zm7.313-48.27h1.23a7.609,7.609,0,0,1,2.971.527,4.678,4.678,0,0,1,2.039,1.652,7.762,7.762,0,0,1,1.16,2.918,21.79,21.79,0,0,1,.369,4.324q0,4.676-1.758,6.644t-6.011,1.969V78.05Zm18.949,48.27h7.031l2.074-10.582h10.758l2.039,10.582h7.242L297.333,72.038h-5.7Zm10.125-16.242,1.336-6.961q1.054-5.625,1.828-10.635t1.266-9.9q1.019,10.02,2.636,18.843l1.617,8.649H289.95Zm17.824-31.641h8.438v47.883h7.171V78.436h8.192v-6.4h-23.8v6.4Zm27.844,47.883h19.441v-6.187H342.93V101.6h10.758V95.417H342.93V78.225h12.129V72.038H335.618v54.281Zm41.062,0h7.313V99.741l9.949,26.578h7.418l-9.984-26.4a8.37,8.37,0,0,0,5.572-4.377,19.363,19.363,0,0,0,1.951-9.369q0-7.594-3.691-11.285-2.919-2.848-8.9-2.848H376.68v54.281Zm7.313-48.27h1.23a7.609,7.609,0,0,1,2.971.527,4.672,4.672,0,0,1,2.039,1.652,7.762,7.762,0,0,1,1.16,2.918,21.79,21.79,0,0,1,.369,4.324q0,4.676-1.757,6.644t-6.012,1.969V78.05Zm18.949,48.27h7.031l2.075-10.582h10.757l2.039,10.582h7.243L420.45,72.038h-5.695Zm10.125-16.242,1.336-6.961q1.054-5.625,1.828-10.635t1.266-9.9q1.018,10.02,2.636,18.843l1.618,8.649h-8.684Zm23.309,16.242h7.207l-0.387-23.66q0-1.02-.018-1.828t-0.052-1.371l-0.387-6.715-0.387-5.519c-0.023-.3-0.059-0.674-0.1-1.108s-0.106-.955-0.176-1.564q0.211,0.915.369,1.617c0.106,0.469.181,0.867,0.229,1.2q0.843,3.938,1.845,7.523t2.127,7l8.192,24.434h6.855V72.038H454.34v20.25q0,4.5.422,9.6t1.3,11.391a197.749,197.749,0,0,0-5.59-19.582L443.2,72.038h-6.82v54.281Zm33.679,0h5.907q10.264,0,14.238-3.551a16.025,16.025,0,0,0,4.64-8.261,60.926,60.926,0,0,0,1.442-14.626q0-9.773-1.3-15.012a19.657,19.657,0,0,0-4.359-8.789,10.979,10.979,0,0,0-4.641-3.129,22.65,22.65,0,0,0-6.926-.914h-9v54.281Zm7.313-48.129h0.914q5.906,0,8.121,4.711t2.215,17.262q0,11.672-2.32,15.715-2.251,4.042-8.93,4.043V78.19ZM529.751,84.9a22.175,22.175,0,0,0-3.164-8.894q-3.306-4.675-10.125-4.676-7.63,0-10.829,6.047-3.163,6.012-3.164,20.5,0,16.243,3.2,22.605,3.234,6.5,11.144,6.5,7.522,0,10.723-6.047t3.2-20.426a92.587,92.587,0,0,0-.984-15.609h0ZM521.7,116.229q-1.371,4.078-5.063,4.078-3.762,0-5.132-4.359-1.337-4.6-1.336-16.523,0-12.937,1.265-17.227,1.3-4.253,5.2-4.254t5.168,4.641q1.266,4.606,1.266,18.7,0,10.9-1.371,14.941h0Zm14.379,10.09h6.89l2.11-37.406q0.561,4.57,1.248,8.736t1.564,8.209l4.289,20.461H557.1l4.571-23.7,0.351-1.864,0.914-4.957q0.175-.984.4-2.426T563.852,90l0.176-1.09q0.034,0.387.053,0.615c0.011,0.153.017,0.252,0.017,0.3l0.176,6.68,0.316,7.278q0,0.667.053,1.687t0.123,2.426L566,126.319h7L568,72.038h-6.328L557.419,93.8l-0.809,3.9-0.914,5.906-1.02,6.223a3.935,3.935,0,0,0-.07.474q-0.036.334-.105,0.932-0.6-4.57-1.319-8.736t-1.6-8.315L546.8,72.038h-6.257Z"/>
</svg>
